<?xml version="1.0" encoding="UTF-8"?><svg id="a" xmlns="http://www.w3.org/2000/svg" viewBox="0 0 720 720"><defs><style>.b{fill:none;stroke:#231f20;stroke-miterlimit:10;stroke-width:2px;}</style></defs><rect class="b" width="72" height="72"/><rect class="b" x="72" width="72" height="72"/><rect class="b" x="144" width="72" height="72"/><rect class="b" x="216" width="72" height="72"/><rect class="b" x="288" width="72" height="72"/><rect class="b" x="360" width="72" height="72"/><rect class="b" x="432" width="72" height="72"/><rect class="b" x="504" width="72" height="72"/><rect class="b" x="576" width="72" height="72"/><rect class="b" x="648" width="72" height="72"/><rect class="b" y="72" width="72" height="72"/><rect class="b" x="72" y="72" width="72" height="72"/><rect class="b" x="144" y="72" width="72" height="72"/><rect class="b" x="216" y="72" width="72" height="72"/><rect class="b" x="288" y="72" width="72" height="72"/><rect class="b" x="360" y="72" width="72" height="72"/><rect class="b" x="432" y="72" width="72" height="72"/><rect class="b" x="504" y="72" width="72" height="72"/><rect class="b" x="576" y="72" width="72" height="72"/><rect class="b" x="648" y="72" width="72" height="72"/><rect class="b" y="144" width="72" height="72"/><rect class="b" x="72" y="144" width="72" height="72"/><rect class="b" x="144" y="144" width="72" height="72"/><rect class="b" x="216" y="144" width="72" height="72"/><rect class="b" x="288" y="144" width="72" height="72"/><rect class="b" x="360" y="144" width="72" height="72"/><rect class="b" x="432" y="144" width="72" height="72"/><rect class="b" x="504" y="144" width="72" height="72"/><rect class="b" x="576" y="144" width="72" height="72"/><rect class="b" x="648" y="144" width="72" height="72"/><rect class="b" y="216" width="72" height="72"/><rect class="b" x="72" y="216" width="72" height="72"/><rect class="b" x="144" y="216" width="72" height="72"/><rect class="b" x="216" y="216" width="72" height="72"/><rect class="b" x="288" y="216" width="72" height="72"/><rect class="b" x="360" y="216" width="72" height="72"/><rect class="b" x="432" y="216" width="72" height="72"/><rect class="b" x="504" y="216" width="72" height="72"/><rect class="b" x="576" y="216" width="72" height="72"/><rect class="b" x="648" y="216" width="72" height="72"/><rect class="b" y="288" width="72" height="72"/><rect class="b" x="72" y="288" width="72" height="72"/><rect class="b" x="144" y="288" width="72" height="72"/><rect class="b" x="216" y="288" width="72" height="72"/><rect class="b" x="288" y="288" width="72" height="72"/><rect class="b" x="360" y="288" width="72" height="72"/><rect class="b" x="432" y="288" width="72" height="72"/><rect class="b" x="504" y="288" width="72" height="72"/><rect class="b" x="576" y="288" width="72" height="72"/><rect class="b" x="648" y="288" width="72" height="72"/><rect class="b" y="360" width="72" height="72"/><rect class="b" x="72" y="360" width="72" height="72"/><rect class="b" x="144" y="360" width="72" height="72"/><rect class="b" x="216" y="360" width="72" height="72"/><rect class="b" x="288" y="360" width="72" height="72"/><rect class="b" x="360" y="360" width="72" height="72"/><rect class="b" x="432" y="360" width="72" height="72"/><rect class="b" x="504" y="360" width="72" height="72"/><rect class="b" x="576" y="360" width="72" height="72"/><rect class="b" x="648" y="360" width="72" height="72"/><rect class="b" y="432" width="72" height="72"/><rect class="b" x="72" y="432" width="72" height="72"/><rect class="b" x="144" y="432" width="72" height="72"/><rect class="b" x="216" y="432" width="72" height="72"/><rect class="b" x="288" y="432" width="72" height="72"/><rect class="b" x="360" y="432" width="72" height="72"/><rect class="b" x="432" y="432" width="72" height="72"/><rect class="b" x="504" y="432" width="72" height="72"/><rect class="b" x="576" y="432" width="72" height="72"/><rect class="b" x="648" y="432" width="72" height="72"/><rect class="b" y="504" width="72" height="72"/><rect class="b" x="72" y="504" width="72" height="72"/><rect class="b" x="144" y="504" width="72" height="72"/><rect class="b" x="216" y="504" width="72" height="72"/><rect class="b" x="288" y="504" width="72" height="72"/><rect class="b" x="360" y="504" width="72" height="72"/><rect class="b" x="432" y="504" width="72" height="72"/><rect class="b" x="504" y="504" width="72" height="72"/><rect class="b" x="576" y="504" width="72" height="72"/><rect class="b" x="648" y="504" width="72" height="72"/><rect class="b" y="576" width="72" height="72"/><rect class="b" x="72" y="576" width="72" height="72"/><rect class="b" x="144" y="576" width="72" height="72"/><rect class="b" x="216" y="576" width="72" height="72"/><rect class="b" x="288" y="576" width="72" height="72"/><rect class="b" x="360" y="576" width="72" height="72"/><rect class="b" x="432" y="576" width="72" height="72"/><rect class="b" x="504" y="576" width="72" height="72"/><rect class="b" x="576" y="576" width="72" height="72"/><rect class="b" x="648" y="576" width="72" height="72"/><rect class="b" y="648" width="72" height="72"/><rect class="b" x="72" y="648" width="72" height="72"/><rect class="b" x="144" y="648" width="72" height="72"/><rect class="b" x="216" y="648" width="72" height="72"/><rect class="b" x="288" y="648" width="72" height="72"/><rect class="b" x="360" y="648" width="72" height="72"/><rect class="b" x="432" y="648" width="72" height="72"/><rect class="b" x="504" y="648" width="72" height="72"/><rect class="b" x="576" y="648" width="72" height="72"/><rect class="b" x="648" y="648" width="72" height="72"/><line class="b" x1="43.2" y1="350.33" x2="43.2" y2="369.67"/><line class="b" x1="28.8" y1="350.33" x2="28.8" y2="369.67"/><line class="b" y1="350.33" y2="369.67"/><line class="b" x1="14.4" y1="350.33" x2="14.4" y2="369.67"/><line class="b" x1="57.6" y1="350.33" x2="57.6" y2="369.67"/><line class="b" x1="72" y1="350.33" x2="72" y2="369.67"/><line class="b" x1="115.2" y1="350.33" x2="115.2" y2="369.67"/><line class="b" x1="100.8" y1="350.33" x2="100.8" y2="369.67"/><line class="b" x1="72" y1="350.33" x2="72" y2="369.67"/><line class="b" x1="86.4" y1="350.33" x2="86.4" y2="369.67"/><line class="b" x1="129.6" y1="350.33" x2="129.6" y2="369.67"/><line class="b" x1="144" y1="350.33" x2="144" y2="369.67"/><line class="b" x1="187.2" y1="350.33" x2="187.2" y2="369.67"/><line class="b" x1="172.8" y1="350.33" x2="172.8" y2="369.67"/><line class="b" x1="144" y1="350.33" x2="144" y2="369.67"/><line class="b" x1="158.4" y1="350.33" x2="158.4" y2="369.67"/><line class="b" x1="201.6" y1="350.33" x2="201.6" y2="369.67"/><line class="b" x1="216" y1="350.33" x2="216" y2="369.67"/><line class="b" x1="259.2" y1="350.33" x2="259.2" y2="369.67"/><line class="b" x1="244.8" y1="350.33" x2="244.8" y2="369.67"/><line class="b" x1="216" y1="350.33" x2="216" y2="369.67"/><line class="b" x1="230.4" y1="350.33" x2="230.4" y2="369.67"/><line class="b" x1="273.6" y1="350.33" x2="273.6" y2="369.67"/><line class="b" x1="288" y1="350.33" x2="288" y2="369.67"/><line class="b" x1="331.2" y1="350.33" x2="331.2" y2="369.67"/><line class="b" x1="316.8" y1="350.33" x2="316.8" y2="369.67"/><line class="b" x1="288" y1="350.33" x2="288" y2="369.67"/><line class="b" x1="302.4" y1="350.33" x2="302.4" y2="369.67"/><line class="b" x1="345.6" y1="350.33" x2="345.6" y2="369.67"/><line class="b" x1="360" y1="350.33" x2="360" y2="369.67"/><line class="b" x1="403.2" y1="350.33" x2="403.2" y2="369.67"/><line class="b" x1="388.8" y1="350.33" x2="388.8" y2="369.67"/><line class="b" x1="360" y1="350.33" x2="360" y2="369.67"/><line class="b" x1="374.4" y1="350.33" x2="374.4" y2="369.67"/><line class="b" x1="417.6" y1="350.33" x2="417.6" y2="369.67"/><line class="b" x1="432" y1="350.33" x2="432" y2="369.67"/><line class="b" x1="475.2" y1="350.33" x2="475.2" y2="369.67"/><line class="b" x1="460.8" y1="350.33" x2="460.8" y2="369.67"/><line class="b" x1="432" y1="350.33" x2="432" y2="369.67"/><line class="b" x1="446.4" y1="350.33" x2="446.4" y2="369.67"/><line class="b" x1="489.6" y1="350.33" x2="489.6" y2="369.67"/><line class="b" x1="504" y1="350.33" x2="504" y2="369.67"/><line class="b" x1="547.2" y1="350.33" x2="547.2" y2="369.67"/><line class="b" x1="532.8" y1="350.33" x2="532.8" y2="369.67"/><line class="b" x1="504" y1="350.33" x2="504" y2="369.67"/><line class="b" x1="518.4" y1="350.33" x2="518.4" y2="369.67"/><line class="b" x1="561.6" y1="350.33" x2="561.6" y2="369.67"/><line class="b" x1="576" y1="350.33" x2="576" y2="369.67"/><line class="b" x1="619.2" y1="350.33" x2="619.2" y2="369.67"/><line class="b" x1="604.8" y1="350.33" x2="604.8" y2="369.67"/><line class="b" x1="576" y1="350.33" x2="576" y2="369.67"/><line class="b" x1="590.4" y1="350.33" x2="590.4" y2="369.67"/><line class="b" x1="633.6" y1="350.33" x2="633.6" y2="369.67"/><line class="b" x1="648" y1="350.33" x2="648" y2="369.67"/><line class="b" x1="691.2" y1="350.33" x2="691.2" y2="369.67"/><line class="b" x1="676.8" y1="350.33" x2="676.8" y2="369.67"/><line class="b" x1="648" y1="350.33" x2="648" y2="369.67"/><line class="b" x1="662.4" y1="350.33" x2="662.4" y2="369.67"/><line class="b" x1="705.6" y1="350.33" x2="705.6" y2="369.67"/><line class="b" x1="720" y1="350.33" x2="720" y2="369.67"/><line class="b" x1="369.67" y1="43.2" x2="350.33" y2="43.2"/><line class="b" x1="369.67" y1="28.8" x2="350.33" y2="28.8"/><line class="b" x1="369.67" y1="0" x2="350.33" y2="0"/><line class="b" x1="369.67" y1="14.4" x2="350.33" y2="14.4"/><line class="b" x1="369.67" y1="57.6" x2="350.33" y2="57.6"/><line class="b" x1="369.67" y1="72" x2="350.33" y2="72"/><line class="b" x1="369.67" y1="115.2" x2="350.33" y2="115.2"/><line class="b" x1="369.67" y1="100.8" x2="350.33" y2="100.8"/><line class="b" x1="369.67" y1="72" x2="350.33" y2="72"/><line class="b" x1="369.67" y1="86.4" x2="350.33" y2="86.4"/><line class="b" x1="369.67" y1="129.6" x2="350.33" y2="129.6"/><line class="b" x1="369.67" y1="144" x2="350.33" y2="144"/><line class="b" x1="369.67" y1="187.2" x2="350.33" y2="187.2"/><line class="b" x1="369.67" y1="172.8" x2="350.33" y2="172.8"/><line class="b" x1="369.67" y1="144" x2="350.33" y2="144"/><line class="b" x1="369.67" y1="158.4" x2="350.33" y2="158.4"/><line class="b" x1="369.67" y1="201.6" x2="350.33" y2="201.6"/><line class="b" x1="369.67" y1="216" x2="350.33" y2="216"/><line class="b" x1="369.67" y1="259.2" x2="350.33" y2="259.2"/><line class="b" x1="369.67" y1="244.8" x2="350.33" y2="244.8"/><line class="b" x1="369.67" y1="216" x2="350.33" y2="216"/><line class="b" x1="369.67" y1="230.4" x2="350.33" y2="230.4"/><line class="b" x1="369.67" y1="273.6" x2="350.33" y2="273.6"/><line class="b" x1="369.67" y1="288" x2="350.33" y2="288"/><line class="b" x1="369.67" y1="331.2" x2="350.33" y2="331.2"/><line class="b" x1="369.67" y1="316.8" x2="350.33" y2="316.8"/><line class="b" x1="369.67" y1="288" x2="350.33" y2="288"/><line class="b" x1="369.67" y1="302.4" x2="350.33" y2="302.4"/><line class="b" x1="369.67" y1="345.6" x2="350.33" y2="345.6"/><line class="b" x1="369.67" y1="360" x2="350.33" y2="360"/><line class="b" x1="369.67" y1="403.2" x2="350.33" y2="403.2"/><line class="b" x1="369.67" y1="388.8" x2="350.33" y2="388.8"/><line class="b" x1="369.67" y1="360" x2="350.33" y2="360"/><line class="b" x1="369.67" y1="374.4" x2="350.33" y2="374.4"/><line class="b" x1="369.67" y1="417.6" x2="350.33" y2="417.6"/><line class="b" x1="369.67" y1="432" x2="350.33" y2="432"/><line class="b" x1="369.67" y1="475.2" x2="350.33" y2="475.2"/><line class="b" x1="369.67" y1="460.8" x2="350.33" y2="460.8"/><line class="b" x1="369.67" y1="432" x2="350.33" y2="432"/><line class="b" x1="369.67" y1="446.4" x2="350.33" y2="446.4"/><line class="b" x1="369.67" y1="489.6" x2="350.33" y2="489.6"/><line class="b" x1="369.67" y1="504" x2="350.33" y2="504"/><line class="b" x1="369.67" y1="547.2" x2="350.33" y2="547.2"/><line class="b" x1="369.67" y1="532.8" x2="350.33" y2="532.8"/><line class="b" x1="369.67" y1="504" x2="350.33" y2="504"/><line class="b" x1="369.67" y1="518.4" x2="350.33" y2="518.4"/><line class="b" x1="369.67" y1="561.6" x2="350.33" y2="561.6"/><line class="b" x1="369.67" y1="576" x2="350.33" y2="576"/><line class="b" x1="369.67" y1="619.2" x2="350.33" y2="619.2"/><line class="b" x1="369.67" y1="604.8" x2="350.33" y2="604.8"/><line class="b" x1="369.67" y1="576" x2="350.33" y2="576"/><line class="b" x1="369.67" y1="590.4" x2="350.33" y2="590.4"/><line class="b" x1="369.67" y1="633.6" x2="350.33" y2="633.6"/><line class="b" x1="369.67" y1="648" x2="350.33" y2="648"/><line class="b" x1="369.67" y1="691.2" x2="350.33" y2="691.2"/><line class="b" x1="369.67" y1="676.8" x2="350.33" y2="676.8"/><line class="b" x1="369.67" y1="648" x2="350.33" y2="648"/><line class="b" x1="369.67" y1="662.4" x2="350.33" y2="662.4"/><line class="b" x1="369.67" y1="705.6" x2="350.33" y2="705.6"/><line class="b" x1="369.67" y1="720" x2="350.33" y2="720"/></svg>